<svg viewBox="0 0 1920 1020" xmlns="http://www.w3.org/2000/svg" font-family="'Helvetica Neue','Arial',sans-serif">
  <defs>
    <marker id="arrow" viewBox="0 0 10 10" refX="9" refY="5" markerWidth="7" markerHeight="7" orient="auto-start-reverse">
      <path d="M0,0 L10,5 L0,10 z" fill="#475569"/>
    </marker>
    <marker id="arrowTeal" viewBox="0 0 10 10" refX="9" refY="5" markerWidth="7" markerHeight="7" orient="auto-start-reverse">
      <path d="M0,0 L10,5 L0,10 z" fill="#0f766e"/>
    </marker>
    <marker id="arrowAmber" viewBox="0 0 10 10" refX="9" refY="5" markerWidth="7" markerHeight="7" orient="auto-start-reverse">
      <path d="M0,0 L10,5 L0,10 z" fill="#b45309"/>
    </marker>
    <marker id="arrowDark" viewBox="0 0 10 10" refX="9" refY="5" markerWidth="8" markerHeight="8" orient="auto-start-reverse">
      <path d="M0,0 L10,5 L0,10 z" fill="#334155"/>
    </marker>
    <marker id="arrowBrown" viewBox="0 0 10 10" refX="9" refY="5" markerWidth="6.5" markerHeight="6.5" orient="auto-start-reverse">
      <path d="M0,0 L10,5 L0,10 z" fill="#8d6e63"/>
    </marker>
  </defs>
  <rect width="1920" height="1020" fill="#ffffff"/>
  <text x="960" y="46" text-anchor="middle" font-size="34" font-weight="700" fill="#0f172a">paideia — The Data Pipeline That Closes the Full Semester Cycle</text>
  <text x="960" y="80" text-anchor="middle" font-size="16.5" fill="#64748b">paideia (παιδεία) · Pre-diagnosis → Item generation → Formative assessment → Exam → Result interpretation → Retrospective → Next semester (closed loop)</text>
  <rect x="210" y="100" width="1670" height="34" rx="17" fill="#f1f5f9"/>
  <g font-size="15" fill="#475569" text-anchor="middle" font-weight="700">
    <text x="305"  y="123">Weeks 1–2 of term</text>
    <text x="725"  y="123">Weekly during term</text>
    <text x="1100" y="123">Before midterm/final</text>
    <text x="1300" y="123">Exam</text>
    <text x="1517" y="123">Right after exam</text>
    <text x="1767" y="123">After term ends</text>
  </g>
  <g stroke="#cbd5e1" stroke-width="1">
    <line x1="480"  y1="106" x2="480"  y2="128"/>
    <line x1="980"  y1="106" x2="980"  y2="128"/>
    <line x1="1220" y1="106" x2="1220" y2="128"/>
    <line x1="1380" y1="106" x2="1380" y2="128"/>
    <line x1="1655" y1="106" x2="1655" y2="128"/>
  </g>
  <g>
    <rect x="20" y="415" width="160" height="80" rx="10" fill="#efebe9" stroke="#a1887f" stroke-width="1.6"/>
    <text x="100" y="448" text-anchor="middle" font-size="14" font-weight="700" fill="#5d4037">Pre-diagnostic survey</text>
    <text x="100" y="473" text-anchor="middle" font-size="12" fill="#795548">Response CSV (Bronze)</text>
    <line x1="180" y1="455" x2="204" y2="455" stroke="#8d6e63" stroke-width="2" marker-end="url(#arrowBrown)"/>
  </g>
  <g>
    <rect x="520" y="190" width="170" height="76" rx="10" fill="#efebe9" stroke="#a1887f" stroke-width="1.6"/>
    <text x="605" y="222" text-anchor="middle" font-size="14" font-weight="700" fill="#5d4037">Textbook text</text>
    <text x="605" y="247" text-anchor="middle" font-size="12" fill="#795548">Chapter md/txt (Bronze)</text>
    <line x1="605" y1="266" x2="605" y2="374" stroke="#8d6e63" stroke-width="2" marker-end="url(#arrowBrown)"/>
    <path d="M690,228 H990 V430 H1024" fill="none" stroke="#8d6e63" stroke-width="2" marker-end="url(#arrowBrown)"/>
  </g>
  <g>
    <rect x="1090" y="190" width="180" height="76" rx="10" fill="#efebe9" stroke="#a1887f" stroke-width="1.6"/>
    <text x="1180" y="222" text-anchor="middle" font-size="14" font-weight="700" fill="#5d4037">Lecture transcript (STT)</text>
    <text x="1180" y="247" text-anchor="middle" font-size="12" fill="#795548">Per-section text (Bronze)</text>
    <line x1="1180" y1="266" x2="1180" y2="374" stroke="#8d6e63" stroke-width="2" marker-end="url(#arrowBrown)"/>
  </g>
  <rect x="470" y="336" width="510" height="246" rx="16" fill="none" stroke="#b45309" stroke-width="1.4" stroke-dasharray="7 6" opacity="0.55"/>
  <rect x="585" y="322" width="280" height="28" fill="#ffffff"/>
  <text x="725" y="343" text-anchor="middle" font-size="15" font-weight="700" fill="#b45309">Repeated weekly during term ↻</text>
  <g>
    <rect x="210" y="380" width="190" height="150" rx="14" fill="#ecfdf5" stroke="#0f766e" stroke-width="2.4"/>
    <rect x="320" y="368" width="70" height="24" rx="12" fill="#0f766e"/>
    <text x="355" y="385" text-anchor="middle" font-size="12" fill="#ffffff" font-weight="700">Live</text>
    <text x="226" y="420" font-size="22" font-weight="700" fill="#0f766e">needs-map</text>
    <text x="226" y="448" font-size="14" fill="#334155">Pre-diagnosis analysis</text>
    <text x="226" y="473" font-size="11.5" fill="#64748b">Semantic axes · clustering</text>
    <text x="226" y="495" font-size="11.5" fill="#64748b">1 diagnostic card/student</text>
    <text x="386" y="520" text-anchor="end" font-size="12.5" fill="#7c3aed">✦ LLM optional</text>
  </g>
  <g>
    <rect x="490" y="380" width="210" height="150" rx="14" fill="#fffbeb" stroke="#b45309" stroke-width="2.4"/>
    <rect x="620" y="368" width="70" height="24" rx="12" fill="#d97706"/>
    <text x="655" y="385" text-anchor="middle" font-size="12" fill="#ffffff" font-weight="700">In dev</text>
    <text x="506" y="420" font-size="22" font-weight="700" fill="#92400e">maieutica</text>
    <text x="506" y="448" font-size="12.5" fill="#334155">Weekly quiz/formative items</text>
    <text x="506" y="473" font-size="11.5" fill="#64748b">MC/short-answer generation</text>
    <text x="506" y="495" font-size="11.5" fill="#64748b">Schema validation (pydantic)</text>
    <text x="686" y="520" text-anchor="end" font-size="12.5" fill="#7c3aed">✦ LLM</text>
  </g>
  <g>
    <rect x="740" y="380" width="220" height="150" rx="14" fill="#fffbeb" stroke="#b45309" stroke-width="2.4"/>
    <rect x="880" y="368" width="70" height="24" rx="12" fill="#d97706"/>
    <text x="915" y="385" text-anchor="middle" font-size="12" fill="#ffffff" font-weight="700">Merging</text>
    <text x="756" y="420" font-size="17.5" font-weight="700" fill="#92400e">formative-analysis</text>
    <text x="756" y="448" font-size="12.5" fill="#334155">Run &amp; analyze formative test</text>
    <text x="756" y="473" font-size="11.5" fill="#64748b">Test-sheet PDF generation</text>
    <text x="756" y="495" font-size="11.5" fill="#64748b">Weekly per-student report</text>
  </g>
  <g>
    <rect x="1030" y="380" width="190" height="150" rx="14" fill="#ecfdf5" stroke="#0f766e" stroke-width="2.4"/>
    <rect x="1040" y="368" width="70" height="24" rx="12" fill="#0f766e"/>
    <text x="1075" y="385" text-anchor="middle" font-size="12" fill="#ffffff" font-weight="700">Live</text>
    <text x="1046" y="420" font-size="22" font-weight="700" fill="#0f766e">examen</text>
    <text x="1046" y="448" font-size="14" fill="#334155">Draft exam items</text>
    <text x="1046" y="473" font-size="11.5" fill="#64748b">Blueprint slot assignment</text>
    <text x="1046" y="495" font-size="11" fill="#64748b">Evidence/answer balance</text>
    <text x="1206" y="520" text-anchor="end" font-size="12.5" fill="#7c3aed">✦ LLM</text>
  </g>
  <g>
    <rect x="1260" y="415" width="130" height="80" rx="40" fill="#e2e8f0" stroke="#94a3b8" stroke-width="1.8"/>
    <text x="1325" y="448" text-anchor="middle" font-size="14" font-weight="700" fill="#334155">Midterm/Final</text>
    <text x="1325" y="474" text-anchor="middle" font-size="14" font-weight="700" fill="#334155">administration</text>
  </g>
  <g>
    <rect x="1430" y="360" width="215" height="190" rx="14" fill="#ecfdf5" stroke="#0f766e" stroke-width="3"/>
    <rect x="1565" y="348" width="70" height="24" rx="12" fill="#0f766e"/>
    <text x="1600" y="365" text-anchor="middle" font-size="12" fill="#ffffff" font-weight="700">Live</text>
    <text x="1446" y="400" font-size="22" font-weight="700" fill="#0f766e">immersio</text>
    <text x="1446" y="427" font-size="12.5" fill="#334155">Result interp. &amp; feedback</text>
    <text x="1446" y="453" font-size="11.5" fill="#64748b">Item analysis xlsx (7 sheets)</text>
    <text x="1446" y="475" font-size="11.5" fill="#64748b">Diagnosis × score analysis</text>
    <text x="1446" y="497" font-size="11.5" fill="#64748b">1 PDF card/student</text>
    <text x="1446" y="519" font-size="11.5" fill="#64748b">Counseling labels · email</text>
    <text x="1631" y="542" text-anchor="end" font-size="12.5" fill="#7c3aed">✦ LLM optional</text>
  </g>
  <g>
    <rect x="1685" y="380" width="215" height="150" rx="14" fill="#fffbeb" stroke="#b45309" stroke-width="2.4"/>
    <rect x="1815" y="368" width="70" height="24" rx="12" fill="#d97706"/>
    <text x="1850" y="385" text-anchor="middle" font-size="12" fill="#ffffff" font-weight="700">In dev</text>
    <text x="1701" y="420" font-size="22" font-weight="700" fill="#92400e">retro-mester</text>
    <text x="1701" y="448" font-size="12" fill="#334155">Term review → next-yr design</text>
    <text x="1701" y="473" font-size="11.5" fill="#64748b">Do More/Changes/Issues</text>
    <text x="1701" y="495" font-size="11.5" fill="#64748b">Next-semester item-plan seed</text>
    <text x="1886" y="520" text-anchor="end" font-size="12.5" fill="#7c3aed">✦ LLM optional</text>
  </g>
  <g stroke="#475569" stroke-width="2.4" fill="none">
    <line x1="700"  y1="455" x2="734"  y2="455" marker-end="url(#arrow)"/>
    <line x1="960"  y1="455" x2="1024" y2="455" marker-end="url(#arrow)"/>
    <line x1="1220" y1="455" x2="1254" y2="455" marker-end="url(#arrow)"/>
    <line x1="1390" y1="455" x2="1424" y2="455" marker-end="url(#arrow)"/>
    <line x1="1645" y1="455" x2="1679" y2="455" marker-end="url(#arrow)"/>
  </g>
  <path d="M830,530 Q725,592 622,534" fill="none" stroke="#b45309" stroke-width="2" stroke-dasharray="6 5" marker-end="url(#arrowAmber)"/>
  <text x="727" y="605" text-anchor="middle" font-size="13.5" font-weight="700" fill="#b45309">Weekly result feedback</text>
  <path d="M305,530 V620 Q305,650 335,650 H1505 Q1535,650 1535,620 V554" fill="none" stroke="#0f766e" stroke-width="2.6" marker-end="url(#arrowTeal)"/>
  <rect x="650" y="632" width="512" height="36" rx="18" fill="#ffffff" stroke="#99f6e4" stroke-width="1.5"/>
  <text x="906" y="656" text-anchor="middle" font-size="13.5" font-weight="700" fill="#0f766e">Student diagnostic profile (axes·clusters) → joined with exam scores</text>
  <line x1="1537" y1="550" x2="1537" y2="708" stroke="#0f766e" stroke-width="2.4" marker-end="url(#arrowTeal)"/>
  <g>
    <rect x="1437" y="712" width="200" height="80" rx="40" fill="#f0fdf4" stroke="#0f766e" stroke-width="2"/>
    <text x="1537" y="745" text-anchor="middle" font-size="15.5" font-weight="700" fill="#0f766e">Student · group counseling</text>
    <text x="1537" y="770" text-anchor="middle" font-size="12.5" fill="#15803d">Receive personalized report</text>
  </g>
  <path d="M1792,530 V830 Q1792,860 1762,860 H290 Q260,860 260,830 V536" fill="none" stroke="#334155" stroke-width="2.8" stroke-dasharray="10 7" marker-end="url(#arrowDark)"/>
  <rect x="620" y="842" width="680" height="36" rx="18" fill="#ffffff" stroke="#cbd5e1" stroke-width="1.5"/>
  <text x="960" y="866" text-anchor="middle" font-size="14" font-weight="700" fill="#334155">Retrospective &amp; seed data → into next semester's needs-map design (loop closed)</text>
  <g transform="translate(210,940)">
    <rect x="0" y="0" width="18" height="18" rx="5" fill="#ecfdf5" stroke="#0f766e" stroke-width="2.2"/>
    <text x="28" y="15" font-size="14" fill="#334155">Live (applied in 2026-1)</text>
    <rect x="250" y="0" width="18" height="18" rx="5" fill="#fffbeb" stroke="#b45309" stroke-width="2.2"/>
    <text x="278" y="15" font-size="14" fill="#334155">In development/integration</text>
    <rect x="510" y="0" width="18" height="18" rx="5" fill="#efebe9" stroke="#a1887f" stroke-width="1.8"/>
    <text x="538" y="15" font-size="14" fill="#334155">Input data — Bronze → Silver(parquet) → Gold(xlsx·md·pdf)</text>
    <text x="0" y="48" font-size="14" fill="#7c3aed">✦ LLM = LLM used in the generation stage — an optional accelerator only; deterministic code is the default (falls back to full completion if LLM is unavailable)</text>
  </g>
</svg>
